<svg width="40" height="43" viewBox="0 0 40 43" fill="none" xmlns="http://www.w3.org/2000/svg">
<path d="M36.1662 28.4L38.5702 29.842C38.7185 29.9308 38.8413 30.0565 38.9265 30.2069C39.0117 30.3573 39.0565 30.5272 39.0565 30.7C39.0565 30.8729 39.0117 31.0428 38.9265 31.1931C38.8413 31.3435 38.7185 31.4692 38.5702 31.558L21.0302 42.082C20.7191 42.2689 20.3631 42.3676 20.0002 42.3676C19.6373 42.3676 19.2813 42.2689 18.9702 42.082L1.4302 31.558C1.28189 31.4692 1.15913 31.3435 1.07389 31.1931C0.988652 31.0428 0.943848 30.8729 0.943848 30.7C0.943848 30.5272 0.988652 30.3573 1.07389 30.2069C1.15913 30.0565 1.28189 29.9308 1.4302 29.842L3.8342 28.4L20.0002 38.1L36.1662 28.4ZM36.1662 19L38.5702 20.442C38.7185 20.5308 38.8413 20.6565 38.9265 20.8069C39.0117 20.9573 39.0565 21.1272 39.0565 21.3C39.0565 21.4729 39.0117 21.6428 38.9265 21.7931C38.8413 21.9435 38.7185 22.0692 38.5702 22.158L20.0002 33.3L1.4302 22.158C1.28189 22.0692 1.15913 21.9435 1.07389 21.7931C0.988652 21.6428 0.943848 21.4729 0.943848 21.3C0.943848 21.1272 0.988652 20.9573 1.07389 20.8069C1.15913 20.6565 1.28189 20.5308 1.4302 20.442L3.8342 19L20.0002 28.7L36.1662 19ZM21.0282 0.618017L38.5702 11.142C38.7185 11.2308 38.8413 11.3565 38.9265 11.5069C39.0117 11.6573 39.0565 11.8272 39.0565 12C39.0565 12.1729 39.0117 12.3428 38.9265 12.4931C38.8413 12.6435 38.7185 12.7692 38.5702 12.858L20.0002 24L1.4302 12.858C1.28189 12.7692 1.15913 12.6435 1.07389 12.4931C0.988652 12.3428 0.943848 12.1729 0.943848 12C0.943848 11.8272 0.988652 11.6573 1.07389 11.5069C1.15913 11.3565 1.28189 11.2308 1.4302 11.142L18.9702 0.618017C19.2813 0.43113 19.6373 0.332397 20.0002 0.332397C20.3631 0.332397 20.7191 0.43113 21.0302 0.618017H21.0282ZM20.0002 4.66402L7.7742 12L20.0002 19.336L32.2262 12L20.0002 4.66402Z" fill="#2F80ED"/>
</svg>
