<svg width="12" height="14" viewBox="0 0 12 14" fill="none" xmlns="http://www.w3.org/2000/svg">
<path d="M0.666667 0.333332H11.3333C11.5101 0.333332 11.6797 0.40357 11.8047 0.528594C11.9298 0.653618 12 0.823188 12 0.999999V13C12 13.1768 11.9298 13.3464 11.8047 13.4714C11.6797 13.5964 11.5101 13.6667 11.3333 13.6667H0.666667C0.489856 13.6667 0.320286 13.5964 0.195262 13.4714C0.0702379 13.3464 0 13.1768 0 13V0.999999C0 0.823188 0.0702379 0.653618 0.195262 0.528594C0.320286 0.40357 0.489856 0.333332 0.666667 0.333332ZM1.33333 1.66667V12.3333H10.6667V1.66667H1.33333ZM2.66667 3H9.33333V5.66667H2.66667V3ZM2.66667 7H4V8.33333H2.66667V7ZM2.66667 9.66667H4V11H2.66667V9.66667ZM5.33333 7H6.66667V8.33333H5.33333V7ZM5.33333 9.66667H6.66667V11H5.33333V9.66667ZM8 7H9.33333V11H8V7Z" fill="white"/>
</svg>
