<svg width="78" height="54" viewBox="0 0 78 54" fill="none" xmlns="http://www.w3.org/2000/svg">
<path opacity="0.3" d="M35.728 45.88C32.128 50.632 27.112 53.008 20.68 53.008C14.248 53.008 9.208 50.632 5.56 45.88C1.96 41.08 0.16 34.72 0.16 26.8C0.16 18.88 1.96 12.544 5.56 7.792C9.208 2.992 14.248 0.591997 20.68 0.591997C27.112 0.591997 32.128 2.992 35.728 7.792C39.376 12.544 41.2 18.88 41.2 26.8C41.2 34.72 39.376 41.08 35.728 45.88ZM11.68 26.8C11.68 36.784 14.68 41.776 20.68 41.776C26.68 41.776 29.68 36.784 29.68 26.8C29.68 16.816 26.68 11.824 20.68 11.824C14.68 11.824 11.68 16.816 11.68 26.8ZM43.5293 52V43.648L60.4493 26.08C63.8573 22.576 65.5613 19.6 65.5613 17.152C65.5613 15.568 65.0813 14.296 64.1213 13.336C63.1613 12.328 61.8413 11.824 60.1613 11.824C56.8013 11.824 54.3293 13.648 52.7453 17.296L43.0253 11.608C44.5613 8.008 46.8653 5.272 49.9373 3.4C53.0093 1.528 56.3693 0.591997 60.0173 0.591997C64.7213 0.591997 68.7293 2.056 72.0413 4.984C75.4013 7.864 77.0813 11.752 77.0813 16.648C77.0813 21.976 74.4653 27.256 69.2333 32.488L60.8813 40.912H77.8013V52H43.5293Z" fill="#2F80ED"/>
</svg>
