<svg width="79" height="54" viewBox="0 0 79 54" fill="none" xmlns="http://www.w3.org/2000/svg">
<path opacity="0.3" d="M35.728 45.88C32.128 50.632 27.112 53.008 20.68 53.008C14.248 53.008 9.208 50.632 5.56 45.88C1.96 41.08 0.16 34.72 0.16 26.8C0.16 18.88 1.96 12.544 5.56 7.792C9.208 2.992 14.248 0.591997 20.68 0.591997C27.112 0.591997 32.128 2.992 35.728 7.792C39.376 12.544 41.2 18.88 41.2 26.8C41.2 34.72 39.376 41.08 35.728 45.88ZM11.68 26.8C11.68 36.784 14.68 41.776 20.68 41.776C26.68 41.776 29.68 36.784 29.68 26.8C29.68 16.816 26.68 11.824 20.68 11.824C14.68 11.824 11.68 16.816 11.68 26.8ZM67.8839 22.048C71.0999 23.152 73.6919 24.952 75.6599 27.448C77.6279 29.896 78.6119 32.8 78.6119 36.16C78.6119 41.44 76.8359 45.568 73.2839 48.544C69.7319 51.52 65.3879 53.008 60.2519 53.008C56.2679 53.008 52.6919 52.096 49.5239 50.272C46.4039 48.448 44.0999 45.76 42.6119 42.208L52.5479 36.448C53.7959 40 56.3639 41.776 60.2519 41.776C62.5079 41.776 64.2119 41.248 65.3639 40.192C66.5159 39.136 67.0919 37.792 67.0919 36.16C67.0919 34.528 66.5159 33.184 65.3639 32.128C64.2119 31.072 62.5079 30.544 60.2519 30.544H57.8759L53.4839 23.992L62.6279 12.4H44.1959V1.6H76.5959V10.96L67.8839 22.048Z" fill="#2F80ED"/>
</svg>
