<svg xmlns="http://www.w3.org/2000/svg" xmlns:xlink="http://www.w3.org/1999/xlink"><defs><radialGradient id="paint0_radial_55_611" cx="0" cy="0" r="1" gradientUnits="userSpaceOnUse" gradientTransform="matrix(169.56443 76.81937 -172.62136 381.02946 2.003 33.44)"><stop stop-color="#EBF6FF"/><stop offset=".333" stop-color="#EBEAF8"/><stop offset=".62" stop-color="#D8EDEE"/><stop offset=".823" stop-color="#EFF4F9"/><stop offset="1" stop-color="#EFF8FF"/></radialGradient></defs><symbol id="Ellipse"><g fill="none"><circle cx="84" cy="84" r="84" fill="url(#paint0_radial_55_611)"/></g></symbol><symbol id="facebook"><g fill="none"><circle opacity=".3" cx="22" cy="22" r="22" fill="#B4BBCE"/><path d="M24 23.5h2.5l1-4H24v-2c0-1.03 0-2 2-2h1.5v-3.36c-.326-.043-1.557-.14-2.857-.14C21.928 12 20 13.657 20 16.7v2.8h-3v4h3V32h4v-8.5z" fill="#2C2F36"/></g></symbol><symbol id="file"><g fill="none"><path d="M12 10.586l4.243 4.242-1.415 1.415L13 14.415V20h-2v-5.587l-1.828 1.83-1.415-1.415L12 10.586zM12 0a7 7 0 016.954 6.194A5.5 5.5 0 0118 16.978v-2.014a3.5 3.5 0 10-1.112-6.91 5 5 0 10-9.777 0 3.5 3.5 0 00-1.292 6.88l.18.03v2.014a5.5 5.5 0 01-.954-10.784A7 7 0 0112 0z" fill="#000"/></g></symbol><symbol id="heart"><g fill="none"><path d="M5 1.264a3 3 0 014.24 4.232L5 9.742.76 5.496A3 3 0 015 1.264z" fill="#2F80ED"/></g></symbol><symbol id="plusb"><g fill="none"><path d="M7 12.333V7m0 0V1.667M7 7h5.334M7 7H1.667" stroke="#2C2F36" stroke-width="2" stroke-linecap="round"/></g></symbol><symbol id="print"><g fill="none"><path d="M.667.333h10.666A.667.667 0 0112 1v12a.666.666 0 01-.667.667H.667A.667.667 0 010 13V1A.667.667 0 01.667.333zm.666 1.334v10.666h9.334V1.667H1.333zM2.667 3h6.666v2.667H2.667V3zm0 4H4v1.333H2.667V7zm0 2.667H4V11H2.667V9.667zM5.333 7h1.334v1.333H5.333V7zm0 2.667h1.334V11H5.333V9.667zM8 7h1.333v4H8V7z" fill="#fff"/></g></symbol><symbol id="youtube"><g fill="none"><circle opacity=".3" cx="22" cy="22" r="22" fill="#B4BBCE"/><path d="M31.543 16.498C32 18.28 32 22 32 22s0 3.72-.457 5.502c-.254.985-.997 1.76-1.938 2.022C27.896 30 22 30 22 30s-5.893 0-7.605-.476c-.945-.266-1.687-1.04-1.938-2.022C12 25.72 12 22 12 22s0-3.72.457-5.502c.254-.985.997-1.76 1.938-2.022C16.107 14 22 14 22 14s5.896 0 7.605.476c.945.266 1.687 1.04 1.938 2.022zM20 25.5l6-3.5-6-3.5v7z" fill="#2C2F36"/></g></symbol></svg>