<svg xmlns="http://www.w3.org/2000/svg" xmlns:xlink="http://www.w3.org/1999/xlink"><defs><radialGradient id="paint0_radial_55_611" cx="0" cy="0" r="1" gradientUnits="userSpaceOnUse" gradientTransform="matrix(169.56443 76.81937 -172.62136 381.02946 2.003 33.44)"><stop stop-color="#EBF6FF"/><stop offset=".333" stop-color="#EBEAF8"/><stop offset=".62" stop-color="#D8EDEE"/><stop offset=".823" stop-color="#EFF4F9"/><stop offset="1" stop-color="#EFF8FF"/></radialGradient></defs><symbol id="Ellipse"><g fill="none"><circle cx="84" cy="84" r="84" fill="url(#paint0_radial_55_611)"/></g></symbol><symbol id="print"><g fill="none"><path d="M.667.333h10.666A.667.667 0 0112 1v12a.666.666 0 01-.667.667H.667A.667.667 0 010 13V1A.667.667 0 01.667.333zm.666 1.334v10.666h9.334V1.667H1.333zM2.667 3h6.666v2.667H2.667V3zm0 4H4v1.333H2.667V7zm0 2.667H4V11H2.667V9.667zM5.333 7h1.334v1.333H5.333V7zm0 2.667h1.334V11H5.333V9.667zM8 7h1.333v4H8V7z" fill="#fff"/></g></symbol></svg>