<svg width="66" height="54" viewBox="0 0 66 54" fill="none" xmlns="http://www.w3.org/2000/svg">
<path opacity="0.3" d="M35.728 45.88C32.128 50.632 27.112 53.008 20.68 53.008C14.248 53.008 9.208 50.632 5.56 45.88C1.96 41.08 0.16 34.72 0.16 26.8C0.16 18.88 1.96 12.544 5.56 7.792C9.208 2.992 14.248 0.591997 20.68 0.591997C27.112 0.591997 32.128 2.992 35.728 7.792C39.376 12.544 41.2 18.88 41.2 26.8C41.2 34.72 39.376 41.08 35.728 45.88ZM11.68 26.8C11.68 36.784 14.68 41.776 20.68 41.776C26.68 41.776 29.68 36.784 29.68 26.8C29.68 16.816 26.68 11.824 20.68 11.824C14.68 11.824 11.68 16.816 11.68 26.8ZM55.8413 1.6H65.9213V52H54.4013V13.768L45.4733 16.216L42.6653 6.352L55.8413 1.6Z" fill="#2F80ED"/>
</svg>
